STARTFONT 2.1
COMMENT
COMMENT Converted from OpenType font "ComicMono.ttf" by "otf2bdf 3.0".
COMMENT
FONT -FreeType-Comic Mono-Medium-R-Normal--28-200-100-100-P-124-ISO10646-1
SIZE 20 100 100
FONTBOUNDINGBOX 16 36 0 -9
STARTPROPERTIES 19
FOUNDRY "FreeType"
FAMILY_NAME "Comic Mono"
WEIGHT_NAME "Medium"
SLANT "R"
SETWIDTH_NAME "Normal"
ADD_STYLE_NAME ""
PIXEL_SIZE 28
POINT_SIZE 200
RESOLUTION_X 100
RESOLUTION_Y 100
SPACING "P"
AVERAGE_WIDTH 124
CHARSET_REGISTRY "ISO10646"
CHARSET_ENCODING "1"
FONT_ASCENT 22
FONT_DESCENT 8
COPYRIGHT "https://github.com/dtinth/comic-mono-font/blob/master/LICENSE"
_OTF_FONTFILE "ComicMono.ttf"
_OTF_PSNAME "ComicMono"
ENDPROPERTIES
CHARS 103
STARTCHAR 0020
ENCODING 32
SWIDTH 540 0
DWIDTH 15 0
BBX 0 0 0 0
BITMAP
ENDCHAR
STARTCHAR 0021
ENCODING 33
SWIDTH 540 0
DWIDTH 15 0
BBX 5 23 5 -1
BITMAP
70
70
70
70
70
70
70
70
70
70
70
70
70
70
70
60
00
00
00
F8
F8
F8
70
ENDCHAR
STARTCHAR 0022
ENCODING 34
SWIDTH 540 0
DWIDTH 15 0
BBX 7 10 4 12
BITMAP
EE
EE
EE
EE
EE
EE
EE
EE
EE
CE
ENDCHAR
STARTCHAR 0023
ENCODING 35
SWIDTH 540 0
DWIDTH 15 0
BBX 15 22 1 -1
BITMAP
0200
071C
071C
0618
0E38
0E38
7FFE
7FFE
0C30
1C70
1C70
1C70
1C70
1C70
FFFC
FFFC
38E0
38E0
38E0
70E0
70C0
2080
ENDCHAR
STARTCHAR 0024
ENCODING 36
SWIDTH 540 0
DWIDTH 15 0
BBX 14 28 1 -3
BITMAP
0380
0380
0380
07E0
1FF8
3FB8
3B80
7380
7380
7380
7B80
3F80
1FF0
07F8
03F8
039C
039C
039C
039C
439C
E3B8
73F8
7FF0
3FC0
0780
0380
0380
0300
ENDCHAR
STARTCHAR 0025
ENCODING 37
SWIDTH 540 0
DWIDTH 15 0
BBX 15 22 1 -2
BITMAP
3800
7C1C
EE1C
C638
C630
C670
FE60
7CE0
00C0
01C0
0180
0380
0700
0700
0EF8
0CFC
1D8C
198E
398C
31FC
70FC
6020
ENDCHAR
STARTCHAR 0026
ENCODING 38
SWIDTH 540 0
DWIDTH 15 0
BBX 15 22 1 -1
BITMAP
0F80
1FE0
3CE0
3870
3870
3870
1CE0
0FE0
0FC0
1F00
3F00
7386
71CE
E1EE
E0FC
E078
E078
E078
70FC
7FDC
3F8E
0404
ENDCHAR
STARTCHAR 0027
ENCODING 39
SWIDTH 540 0
DWIDTH 15 0
BBX 3 9 6 13
BITMAP
E0
E0
E0
E0
E0
E0
E0
E0
C0
ENDCHAR
STARTCHAR 0028
ENCODING 40
SWIDTH 540 0
DWIDTH 15 0
BBX 8 27 4 -4
BITMAP
07
0F
1C
38
30
70
70
60
60
E0
E0
E0
E0
E0
E0
E0
E0
E0
70
70
70
78
38
3C
1E
0F
07
ENDCHAR
STARTCHAR 0029
ENCODING 41
SWIDTH 540 0
DWIDTH 15 0
BBX 8 27 3 -4
BITMAP
F0
F8
1C
0C
0E
06
06
07
07
07
07
07
07
07
07
07
07
07
07
07
0E
0E
1E
1C
38
F8
E0
ENDCHAR
STARTCHAR 002A
ENCODING 42
SWIDTH 540 0
DWIDTH 15 0
BBX 14 13 1 4
BITMAP
1860
1CE0
1CC0
0FC0
0780
FFFC
FFFC
FF98
0F80
0FC0
1CE0
1CE0
1860
ENDCHAR
STARTCHAR 002B
ENCODING 43
SWIDTH 540 0
DWIDTH 15 0
BBX 11 12 2 5
BITMAP
0E00
0E00
0E00
0E00
0E00
FFE0
FFE0
0E00
0E00
0E00
0E00
0400
ENDCHAR
STARTCHAR 002C
ENCODING 44
SWIDTH 540 0
DWIDTH 15 0
BBX 6 11 4 -7
BITMAP
18
1C
1C
38
38
38
70
70
F0
E0
40
ENDCHAR
STARTCHAR 002D
ENCODING 45
SWIDTH 540 0
DWIDTH 15 0
BBX 9 2 3 7
BITMAP
FF80
FF80
ENDCHAR
STARTCHAR 002E
ENCODING 46
SWIDTH 540 0
DWIDTH 15 0
BBX 5 4 5 -1
BITMAP
70
F8
F8
F0
ENDCHAR
STARTCHAR 002F
ENCODING 47
SWIDTH 540 0
DWIDTH 15 0
BBX 13 24 1 -2
BITMAP
0018
0038
0038
0078
0070
00E0
00E0
01C0
01C0
0380
0380
0700
0600
0E00
1C00
1C00
3800
3800
7000
7000
E000
E000
C000
8000
ENDCHAR
STARTCHAR 0030
ENCODING 48
SWIDTH 540 0
DWIDTH 15 0
BBX 13 21 1 0
BITMAP
0F80
3FE0
7DF0
7070
7078
E0F8
E0F8
E1F8
E1B8
E3B8
E738
E638
EE38
EC38
F838
F038
E078
6070
79F0
3FE0
0FC0
ENDCHAR
STARTCHAR 0031
ENCODING 49
SWIDTH 540 0
DWIDTH 15 0
BBX 14 21 1 0
BITMAP
0600
0F00
1F00
3F00
7F00
7700
0700
0700
0700
0700
0700
0700
0700
0700
0700
0700
0700
0700
7FF8
FFFC
FFFC
ENDCHAR
STARTCHAR 0032
ENCODING 50
SWIDTH 540 0
DWIDTH 15 0
BBX 13 21 1 0
BITMAP
0FC0
3FE0
7CF0
7038
6038
0038
0038
0078
00F0
01F0
07C0
0F80
3E00
3C00
7000
7000
E000
E000
E038
FFF8
FFF8
ENDCHAR
STARTCHAR 0033
ENCODING 51
SWIDTH 540 0
DWIDTH 15 0
BBX 13 21 1 0
BITMAP
0FC0
3FE0
3CF0
7038
6038
0038
0038
0070
03E0
0F80
0FE0
00F0
0078
0038
0038
0038
E038
F070
79F0
3FE0
0F80
ENDCHAR
STARTCHAR 0034
ENCODING 52
SWIDTH 540 0
DWIDTH 15 0
BBX 14 21 1 0
BITMAP
00C0
01E0
03E0
07E0
06E0
0EE0
1CE0
18E0
38E0
70E0
60E0
E0E0
FFFC
FFFC
00E0
00E0
00E0
00E0
00E0
00E0
0060
ENDCHAR
STARTCHAR 0035
ENCODING 53
SWIDTH 540 0
DWIDTH 15 0
BBX 13 21 1 0
BITMAP
FFF8
FFF8
E000
E000
E000
E000
E7C0
FFE0
FCF0
F078
6038
0038
0038
0038
0038
0038
C070
E0F0
FBE0
7FC0
1F00
ENDCHAR
STARTCHAR 0036
ENCODING 54
SWIDTH 540 0
DWIDTH 15 0
BBX 13 22 1 0
BITMAP
01E0
07E0
0FC0
1E00
3800
7000
7000
6000
EFE0
FFF0
F870
F038
E038
E038
E038
E038
E038
7070
7070
3DE0
1FC0
0F80
ENDCHAR
STARTCHAR 0037
ENCODING 55
SWIDTH 540 0
DWIDTH 15 0
BBX 13 21 1 0
BITMAP
FFF8
FFF8
4038
0070
0070
00E0
00C0
01C0
0180
0380
0700
0700
0E00
0E00
1C00
1C00
3800
3800
7000
7000
6000
ENDCHAR
STARTCHAR 0038
ENCODING 56
SWIDTH 540 0
DWIDTH 15 0
BBX 14 22 1 -1
BITMAP
0FC0
1FE0
3CF0
7878
7038
7038
7038
3870
3FE0
0FC0
1FF0
3878
7038
E01C
E01C
E01C
E01C
E038
7878
7FF0
1FE0
0200
ENDCHAR
STARTCHAR 0039
ENCODING 57
SWIDTH 540 0
DWIDTH 15 0
BBX 14 22 1 -1
BITMAP
0FC0
3FE0
7870
7038
E038
E018
E01C
E01C
E01C
E01C
703C
7CFC
3FFC
0F98
0038
0038
0070
00F0
03E0
1F80
3F00
1000
ENDCHAR
STARTCHAR 003A
ENCODING 58
SWIDTH 540 0
DWIDTH 15 0
BBX 4 12 6 1
BITMAP
E0
F0
E0
E0
00
00
00
00
E0
F0
E0
E0
ENDCHAR
STARTCHAR 003B
ENCODING 59
SWIDTH 540 0
DWIDTH 15 0
BBX 5 18 5 -6
BITMAP
70
78
70
30
00
00
00
00
70
70
70
70
F0
E0
E0
E0
E0
C0
ENDCHAR
STARTCHAR 003C
ENCODING 60
SWIDTH 540 0
DWIDTH 15 0
BBX 14 21 1 0
BITMAP
0018
003C
00F8
01F0
03E0
0780
0F00
3E00
7C00
F000
F000
7800
3C00
1E00
0F00
0780
03C0
01F0
00F8
007C
0018
ENDCHAR
STARTCHAR 003D
ENCODING 61
SWIDTH 540 0
DWIDTH 15 0
BBX 11 8 2 7
BITMAP
FFE0
FFE0
0000
0000
0000
0000
FFE0
FFE0
ENDCHAR
STARTCHAR 003E
ENCODING 62
SWIDTH 540 0
DWIDTH 15 0
BBX 14 21 1 0
BITMAP
E000
F000
7800
3E00
1F00
0F80
07C0
03E0
01F0
0078
003C
003C
00F8
01F0
03C0
0780
1F00
3E00
7C00
F000
E000
ENDCHAR
STARTCHAR 003F
ENCODING 63
SWIDTH 540 0
DWIDTH 15 0
BBX 12 21 2 0
BITMAP
1F80
3FC0
79E0
F070
E070
4070
0070
00E0
01E0
03C0
0700
0F00
0E00
0E00
0400
0000
0000
0E00
1F00
1F00
0E00
ENDCHAR
STARTCHAR 0040
ENCODING 64
SWIDTH 540 0
DWIDTH 15 0
BBX 14 24 1 -3
BITMAP
07C0
0FF0
1E70
3838
3818
701C
700C
67CC
EFCC
FC0C
F8CC
F8CC
F8CC
FCCC
FFFC
EF78
E038
E000
700C
701C
3818
1E78
0FF0
07C0
ENDCHAR
STARTCHAR 0041
ENCODING 65
SWIDTH 540 0
DWIDTH 15 0
BBX 15 21 0 -1
BITMAP
0060
00E0
01E0
01E0
03F0
0370
0730
0630
0630
0C38
0C38
1C18
1FF8
3FF8
381C
301C
700C
700C
600E
E00E
E006
ENDCHAR
STARTCHAR 0042
ENCODING 66
SWIDTH 540 0
DWIDTH 15 0
BBX 14 21 1 0
BITMAP
FF80
FFE0
F9F0
E070
E038
E038
E038
E038
E070
E1E0
FFC0
FFF0
E0F8
E03C
E01C
E01C
E038
E078
FFF0
FFC0
FE00
ENDCHAR
STARTCHAR 0043
ENCODING 67
SWIDTH 540 0
DWIDTH 15 0
BBX 14 23 1 -1
BITMAP
0008
01FC
03FC
0FBC
0E1C
1C1C
3808
3800
7000
7000
6000
E000
E000
E000
E000
E000
E000
E000
700C
783C
3FF8
1FE0
0200
ENDCHAR
STARTCHAR 0044
ENCODING 68
SWIDTH 540 0
DWIDTH 15 0
BBX 14 22 1 -1
BITMAP
F000
FE00
FF80
E7C0
E3E0
E0F0
E070
E038
E038
E018
E01C
E01C
E01C
E01C
E01C
E01C
E01C
E038
F078
FFF0
FFE0
0100
ENDCHAR
STARTCHAR 0045
ENCODING 69
SWIDTH 540 0
DWIDTH 15 0
BBX 14 21 1 0
BITMAP
FFFC
FFFC
FC08
E000
E000
E000
E000
E000
E000
FFF8
FFF8
E000
E000
E000
E000
E000
E000
E000
F07C
FFFC
7FFC
ENDCHAR
STARTCHAR 0046
ENCODING 70
SWIDTH 540 0
DWIDTH 15 0
BBX 13 21 1 0
BITMAP
FFF8
FFF8
FF00
E000
E000
E000
E000
E000
E000
FFF0
FFF0
E000
E000
E000
E000
E000
E000
E000
E000
E000
C000
ENDCHAR
STARTCHAR 0047
ENCODING 71
SWIDTH 540 0
DWIDTH 15 0
BBX 14 22 1 -1
BITMAP
01F0
03FC
07BC
0E04
1C00
3800
3800
7000
7000
7000
E000
E7FC
EFFC
E41C
E018
E018
E038
7070
78E0
3FE0
1F80
0200
ENDCHAR
STARTCHAR 0048
ENCODING 72
SWIDTH 540 0
DWIDTH 15 0
BBX 13 21 1 0
BITMAP
E038
E038
E038
E038
E038
E038
E038
E038
E0F8
FFF8
FFF8
E038
E038
E038
E038
E038
E038
E038
E038
E038
C038
ENDCHAR
STARTCHAR 0049
ENCODING 73
SWIDTH 540 0
DWIDTH 15 0
BBX 14 21 1 0
BITMAP
FFF8
FFFC
0380
0380
0380
0380
0380
0380
0380
0380
0380
0380
0380
0380
0380
0380
0380
0380
0380
FFFC
FFFC
ENDCHAR
STARTCHAR 004A
ENCODING 74
SWIDTH 540 0
DWIDTH 15 0
BBX 14 21 1 -1
BITMAP
FFF8
FFFC
01C0
01C0
01C0
01C0
01C0
01C0
01C0
01C0
01C0
01C0
01C0
01C0
C1C0
C1C0
C1C0
E180
7180
3F80
1F00
ENDCHAR
STARTCHAR 004B
ENCODING 75
SWIDTH 540 0
DWIDTH 15 0
BBX 14 21 1 -1
BITMAP
E038
E078
E0F0
E1E0
E3C0
E380
E700
EE00
FC00
F800
F800
FC00
FE00
EF00
E780
E3C0
E1E0
E0F0
E078
E03C
C01C
ENDCHAR
STARTCHAR 004C
ENCODING 76
SWIDTH 540 0
DWIDTH 15 0
BBX 14 21 0 0
BITMAP
6000
7000
7000
7000
7000
7000
7000
7000
7000
7000
7000
7000
7000
7000
7000
7000
6000
6000
E3FC
FFFC
7FF8
ENDCHAR
STARTCHAR 004D
ENCODING 77
SWIDTH 540 0
DWIDTH 15 0
BBX 15 21 1 0
BITMAP
3838
3C78
3C78
7C78
6C78
6C78
6C7C
6CEC
6EEC
6ECC
6ECC
66CC
66CC
E6CC
E6CC
E6CC
E6CC
E3CC
E38E
E38E
C384
ENDCHAR
STARTCHAR 004E
ENCODING 78
SWIDTH 540 0
DWIDTH 15 0
BBX 13 21 1 0
BITMAP
F018
F018
F018
F818
F818
FC18
EC18
EE18
EE18
E618
E718
E318
E398
E198
E1D8
E0D8
E0F8
E078
E078
E038
C038
ENDCHAR
STARTCHAR 004F
ENCODING 79
SWIDTH 540 0
DWIDTH 15 0
BBX 14 21 1 0
BITMAP
07C0
1FE0
3EF0
7838
7038
F01C
E01C
E01C
E01C
E01C
E01C
E01C
E01C
E01C
E01C
E01C
E038
7078
79F0
3FE0
0F80
ENDCHAR
STARTCHAR 0050
ENCODING 80
SWIDTH 540 0
DWIDTH 15 0
BBX 13 21 1 0
BITMAP
FF80
FFE0
F1F0
E070
E038
E038
E038
E038
E038
E070
E070
F1E0
FFC0
FF80
E000
E000
E000
E000
E000
E000
E000
ENDCHAR
STARTCHAR 0051
ENCODING 81
SWIDTH 540 0
DWIDTH 15 0
BBX 14 26 1 -6
BITMAP
07C0
1FF0
3CF0
3838
7038
7018
601C
E01C
E01C
E01C
E01C
E01C
E01C
E01C
E31C
E31C
7338
73B8
3DF0
3FE0
0FE0
0070
0070
0038
003C
001C
ENDCHAR
STARTCHAR 0052
ENCODING 82
SWIDTH 540 0
DWIDTH 15 0
BBX 14 21 0 0
BITMAP
7E00
FFC0
7FE0
71F0
7078
703C
701C
701C
701C
7038
7FF8
7FC0
7E00
7780
73C0
71E0
7070
7038
701C
701C
700C
ENDCHAR
STARTCHAR 0053
ENCODING 83
SWIDTH 540 0
DWIDTH 15 0
BBX 14 22 1 -1
BITMAP
03F8
0FFC
3F1C
3800
7000
7000
7000
7800
3F80
1FF0
03F8
0078
003C
001C
001C
001C
001C
E038
F0F8
7FF0
3FC0
0400
ENDCHAR
STARTCHAR 0054
ENCODING 84
SWIDTH 540 0
DWIDTH 15 0
BBX 14 21 1 0
BITMAP
FFFC
FFFC
03F8
0380
0380
0380
0380
0380
0380
0380
0380
0380
0380
0380
0380
0380
0380
0380
0380
0380
0300
ENDCHAR
STARTCHAR 0055
ENCODING 85
SWIDTH 540 0
DWIDTH 15 0
BBX 14 22 1 -1
BITMAP
E01C
E01C
E01C
E01C
E01C
E01C
E01C
E01C
E01C
E01C
E01C
E01C
E01C
E01C
E01C
E01C
E018
7038
7870
3FF0
1FC0
0200
ENDCHAR
STARTCHAR 0056
ENCODING 86
SWIDTH 540 0
DWIDTH 15 0
BBX 15 21 0 0
BITMAP
4006
E00E
E00E
600E
701C
701C
3018
3818
3838
1830
1C30
1C70
0C60
0C60
0EE0
06C0
06C0
07C0
03C0
0380
0380
ENDCHAR
STARTCHAR 0057
ENCODING 87
SWIDTH 540 0
DWIDTH 15 0
BBX 15 21 0 0
BITMAP
C386
E38E
E38E
E38E
E2CE
E6CE
E6CE
66CC
66CC
66CC
66CC
66CC
66EC
6EEC
6CEC
7C7C
7C7C
3C78
3C78
3C78
3830
ENDCHAR
STARTCHAR 0058
ENCODING 88
SWIDTH 540 0
DWIDTH 15 0
BBX 15 21 0 0
BITMAP
700C
701C
381C
3838
1C30
1E70
0EE0
07E0
07C0
03C0
03C0
07C0
0EE0
0EE0
1C70
3878
3838
701C
701C
E00E
4004
ENDCHAR
STARTCHAR 0059
ENCODING 89
SWIDTH 540 0
DWIDTH 15 0
BBX 14 22 1 -1
BITMAP
C00C
C01C
E01C
E038
7038
7070
3870
38E0
1CE0
1DC0
0FC0
0FC0
0780
0380
0700
0700
0E00
0E00
1C00
1C00
3800
1800
ENDCHAR
STARTCHAR 005A
ENCODING 90
SWIDTH 540 0
DWIDTH 15 0
BBX 14 21 1 0
BITMAP
FFFC
FFFC
0038
0070
00F0
00E0
01C0
03C0
0380
0700
0700
0E00
1C00
1C00
3800
3800
7000
6000
E000
FFFC
FFFC
ENDCHAR
STARTCHAR 005B
ENCODING 91
SWIDTH 540 0
DWIDTH 15 0
BBX 10 27 3 -2
BITMAP
FFC0
FFC0
E180
E000
E000
E000
E000
E000
E000
E000
E000
E000
E000
E000
E000
E000
E000
E000
E000
E000
E000
E000
E000
E000
E000
FFC0
FFC0
ENDCHAR
STARTCHAR 005C
ENCODING 92
SWIDTH 540 0
DWIDTH 15 0
BBX 13 24 1 -2
BITMAP
C000
E000
E000
F000
7000
3800
3800
1C00
1C00
0E00
0E00
0700
0300
0380
01C0
01C0
00E0
00E0
0070
0070
0038
0038
0018
0008
ENDCHAR
STARTCHAR 005D
ENCODING 93
SWIDTH 540 0
DWIDTH 15 0
BBX 10 27 3 -2
BITMAP
FFC0
FFC0
61C0
01C0
01C0
01C0
01C0
01C0
01C0
01C0
01C0
01C0
01C0
01C0
01C0
01C0
01C0
01C0
01C0
01C0
01C0
01C0
01C0
01C0
01C0
FFC0
FFC0
ENDCHAR
STARTCHAR 005E
ENCODING 94
SWIDTH 540 0
DWIDTH 15 0
BBX 15 10 0 17
BITMAP
0380
07C0
07C0
0FE0
1EF0
3C78
783C
701E
E00E
4004
ENDCHAR
STARTCHAR 005F
ENCODING 95
SWIDTH 540 0
DWIDTH 15 0
BBX 14 2 1 -3
BITMAP
FFFC
FFFC
ENDCHAR
STARTCHAR 0060
ENCODING 96
SWIDTH 540 0
DWIDTH 15 0
BBX 7 5 4 18
BITMAP
E0
F0
7C
1E
0E
ENDCHAR
STARTCHAR 0061
ENCODING 97
SWIDTH 540 0
DWIDTH 15 0
BBX 13 16 1 -1
BITMAP
07C0
1FF0
3CF0
7870
7070
E070
E070
E070
E070
E070
E0F0
E0F0
71F0
7FB8
3F38
0438
ENDCHAR
STARTCHAR 0062
ENCODING 98
SWIDTH 540 0
DWIDTH 15 0
BBX 13 22 2 0
BITMAP
E000
E000
E000
E000
E000
E000
E000
EF80
FFE0
FDF0
E070
E078
E038
E038
E038
E038
E038
E070
E070
F9E0
FFC0
CF80
ENDCHAR
STARTCHAR 0063
ENCODING 99
SWIDTH 540 0
DWIDTH 15 0
BBX 13 16 1 -1
BITMAP
07C0
1FE0
3CE0
7870
7070
6020
E000
E000
E000
E000
E000
E038
7070
7FF0
1FE0
0400
ENDCHAR
STARTCHAR 0064
ENCODING 100
SWIDTH 540 0
DWIDTH 15 0
BBX 14 22 1 0
BITMAP
0018
0038
0038
0038
0038
0038
0038
0FB8
3FF8
79F8
7078
E038
E038
E038
E038
E038
E038
6038
7078
3CF8
3FFC
0F18
ENDCHAR
STARTCHAR 0065
ENCODING 101
SWIDTH 540 0
DWIDTH 15 0
BBX 13 16 1 -1
BITMAP
0780
1FE0
3CF0
7070
6070
E0F0
E7E0
FF80
FE00
F000
E010
E038
7078
3FF0
1FE0
0600
ENDCHAR
STARTCHAR 0066
ENCODING 102
SWIDTH 540 0
DWIDTH 15 0
BBX 12 22 2 0
BITMAP
01F0
07F0
1FC0
1E00
3C00
3800
3800
3800
FFE0
FFE0
1C00
1C00
1C00
1C00
1C00
1C00
1C00
1C00
1C00
1C00
FFE0
FFE0
ENDCHAR
STARTCHAR 0067
ENCODING 103
SWIDTH 540 0
DWIDTH 15 0
BBX 12 24 2 -9
BITMAP
07E0
1FE0
3CF0
7070
7070
E070
E070
E070
E070
E070
E070
E0F0
71F0
7FF0
3F70
0870
0070
0070
00E0
00E0
01E0
E7C0
FF80
3E00
ENDCHAR
STARTCHAR 0068
ENCODING 104
SWIDTH 540 0
DWIDTH 15 0
BBX 12 22 2 0
BITMAP
E000
E000
E000
E000
E000
E000
E000
E7C0
EFE0
FEF0
F870
F070
E070
E070
E070
E070
E070
E070
E070
E070
E070
C030
ENDCHAR
STARTCHAR 0069
ENCODING 105
SWIDTH 540 0
DWIDTH 15 0
BBX 13 21 1 0
BITMAP
0700
0F80
0F80
0F00
0000
0000
0000
7F00
7F00
0700
0700
0700
0700
0700
0700
0700
0700
0700
0700
FFF8
FFF8
ENDCHAR
STARTCHAR 006A
ENCODING 106
SWIDTH 540 0
DWIDTH 15 0
BBX 10 30 2 -9
BITMAP
0180
03C0
03C0
0180
0000
0000
0000
0000
FFC0
FFC0
01C0
01C0
01C0
01C0
01C0
01C0
01C0
01C0
01C0
01C0
01C0
01C0
01C0
01C0
01C0
0380
0780
3F00
FE00
F800
ENDCHAR
STARTCHAR 006B
ENCODING 107
SWIDTH 540 0
DWIDTH 15 0
BBX 13 22 2 0
BITMAP
E000
E000
E000
E000
E000
E000
E020
E060
E1E0
E3C0
E780
EF00
FE00
FF00
FF00
E380
E3C0
E1C0
E0E0
E070
E078
E030
ENDCHAR
STARTCHAR 006C
ENCODING 108
SWIDTH 540 0
DWIDTH 15 0
BBX 14 22 1 0
BITMAP
7F00
7F00
0700
0700
0700
0700
0700
0700
0700
0700
0700
0700
0700
0700
0700
0700
0700
0700
0700
0700
FFFC
FFFC
ENDCHAR
STARTCHAR 006D
ENCODING 109
SWIDTH 540 0
DWIDTH 15 0
BBX 14 15 1 0
BITMAP
EE38
FEF8
F7DC
F79C
E71C
E71C
E71C
E71C
E71C
E71C
E71C
E71C
E71C
E71C
E31C
ENDCHAR
STARTCHAR 006E
ENCODING 110
SWIDTH 540 0
DWIDTH 15 0
BBX 12 15 2 0
BITMAP
E7C0
EFE0
FEE0
F870
F070
E070
E070
E070
E070
E070
E070
E070
E070
E070
E030
ENDCHAR
STARTCHAR 006F
ENCODING 111
SWIDTH 540 0
DWIDTH 15 0
BBX 13 16 1 -1
BITMAP
0F80
3FE0
3DF0
7070
6070
E038
E038
E038
E038
E038
E038
6070
70F0
3FE0
1FC0
0400
ENDCHAR
STARTCHAR 0070
ENCODING 112
SWIDTH 540 0
DWIDTH 15 0
BBX 12 25 2 -9
BITMAP
E000
EF80
FFC0
F9E0
F0E0
E070
E070
E070
E070
E070
E070
E070
E0E0
E0E0
FFC0
FF80
E600
E000
E000
E000
E000
E000
E000
E000
E000
ENDCHAR
STARTCHAR 0071
ENCODING 113
SWIDTH 540 0
DWIDTH 15 0
BBX 13 24 1 -9
BITMAP
07E0
1FF0
3C78
7030
7030
E030
E030
E030
E030
E030
E030
F030
7030
3FF0
1FF0
0470
0070
0070
0070
0070
0070
0070
0070
0060
ENDCHAR
STARTCHAR 0072
ENCODING 114
SWIDTH 540 0
DWIDTH 15 0
BBX 12 15 2 0
BITMAP
E1E0
E7F0
EFF0
FC70
F870
F060
E000
E000
E000
E000
E000
E000
E000
E000
6000
ENDCHAR
STARTCHAR 0073
ENCODING 115
SWIDTH 540 0
DWIDTH 15 0
BBX 13 16 1 -1
BITMAP
03E0
1FF0
3E70
7070
7030
7800
7F80
1FE0
03F0
0078
0038
E078
F0F0
7FE0
3FC0
0400
ENDCHAR
STARTCHAR 0074
ENCODING 116
SWIDTH 540 0
DWIDTH 15 0
BBX 12 21 1 -1
BITMAP
1800
1C00
1C00
1C00
1C00
1C00
FFF0
FFF0
3800
3800
3800
3800
3800
3800
3800
3800
3800
1C10
1FF0
0FF0
0100
ENDCHAR
STARTCHAR 0075
ENCODING 117
SWIDTH 540 0
DWIDTH 15 0
BBX 12 15 2 0
BITMAP
C070
E070
E070
E070
E070
E070
E070
E070
E070
E070
E070
E1F0
FFF0
7F70
3C70
ENDCHAR
STARTCHAR 0076
ENCODING 118
SWIDTH 540 0
DWIDTH 15 0
BBX 13 15 1 -1
BITMAP
C018
E018
E038
7038
7038
7070
3870
38E0
1CE0
1CC0
0DC0
0F80
0F80
0700
0300
ENDCHAR
STARTCHAR 0077
ENCODING 119
SWIDTH 540 0
DWIDTH 15 0
BBX 15 15 0 -1
BITMAP
4186
E386
E38E
E3CE
63CE
62CE
66CC
76CC
76CC
76EC
34FC
3C78
3C78
1C78
1878
ENDCHAR
STARTCHAR 0078
ENCODING 120
SWIDTH 540 0
DWIDTH 15 0
BBX 13 16 1 -1
BITMAP
4010
E038
7078
78F0
3CE0
1FC0
0F80
0780
0F80
1F80
3DC0
38E0
7070
E078
E038
4008
ENDCHAR
STARTCHAR 0079
ENCODING 121
SWIDTH 540 0
DWIDTH 15 0
BBX 14 24 1 -9
BITMAP
C00C
E01C
E01C
E038
7038
7078
3870
3870
38E0
1CE0
1DC0
0FC0
0F80
0780
0700
0700
0E00
0E00
1C00
1C00
3800
3800
3000
3000
ENDCHAR
STARTCHAR 007A
ENCODING 122
SWIDTH 540 0
DWIDTH 15 0
BBX 12 15 1 0
BITMAP
FC00
FFF0
7FF0
00E0
00E0
01C0
0380
0700
0E00
1C00
3800
7000
E000
FFF0
FFF0
ENDCHAR
STARTCHAR 007B
ENCODING 123
SWIDTH 540 0
DWIDTH 15 0
BBX 12 27 2 -3
BITMAP
01F0
03F0
0700
0E00
0E00
0E00
0E00
0E00
0F00
0700
0700
0E00
FC00
F800
1E00
0700
0700
0700
0700
0E00
0E00
0E00
0E00
0E00
0780
07F0
01F0
ENDCHAR
STARTCHAR 007C
ENCODING 124
SWIDTH 540 0
DWIDTH 15 0
BBX 3 29 7 -4
BITMAP
E0
E0
E0
E0
E0
E0
E0
E0
E0
E0
E0
E0
E0
E0
E0
E0
E0
E0
E0
E0
E0
E0
E0
E0
E0
E0
E0
E0
C0
ENDCHAR
STARTCHAR 007D
ENCODING 125
SWIDTH 540 0
DWIDTH 15 0
BBX 12 27 2 -3
BITMAP
FC00
FE00
0F00
0700
0700
0700
0700
0600
0E00
0E00
0E00
0780
03F0
03F0
0700
0E00
0E00
0F00
0700
0700
0700
0700
0700
0F00
3E00
FC00
F000
ENDCHAR
STARTCHAR 007E
ENCODING 126
SWIDTH 540 0
DWIDTH 15 0
BBX 15 8 0 8
BITMAP
1E00
3F06
3F0E
738C
739C
61F8
E0F8
00F0
ENDCHAR
STARTCHAR 2013
ENCODING 8211
SWIDTH 540 0
DWIDTH 15 0
BBX 11 2 2 7
BITMAP
FFE0
FFE0
ENDCHAR
STARTCHAR 2014
ENCODING 8212
SWIDTH 540 0
DWIDTH 15 0
BBX 14 2 1 7
BITMAP
FFFC
FFFC
ENDCHAR
STARTCHAR 2018
ENCODING 8216
SWIDTH 540 0
DWIDTH 15 0
BBX 5 7 5 14
BITMAP
C0
E0
E0
70
70
38
30
ENDCHAR
STARTCHAR 2019
ENCODING 8217
SWIDTH 540 0
DWIDTH 15 0
BBX 5 8 5 13
BITMAP
38
38
38
70
70
E0
E0
40
ENDCHAR
STARTCHAR 201A
ENCODING 8218
SWIDTH 540 0
DWIDTH 15 0
BBX 4 7 5 15
BITMAP
E0
E0
E0
70
70
70
30
ENDCHAR
STARTCHAR 201C
ENCODING 8220
SWIDTH 540 0
DWIDTH 15 0
BBX 9 9 3 14
BITMAP
0400
0E00
CE00
E700
E700
7380
7380
3900
3800
ENDCHAR
STARTCHAR 201D
ENCODING 8221
SWIDTH 540 0
DWIDTH 15 0
BBX 9 10 3 13
BITMAP
1800
3800
3980
7B80
7380
7380
E700
6700
0E00
0600
ENDCHAR
STARTCHAR 2022
ENCODING 8226
SWIDTH 540 0
DWIDTH 15 0
BBX 5 5 5 10
BITMAP
70
F8
F8
F8
70
ENDCHAR
ENDFONT
